<svg xmlns="http://www.w3.org/2000/svg" xmlns:xlink="http://www.w3.org/1999/xlink" width="2000" zoomAndPan="magnify" viewBox="0 0 1500 1499.999933" height="2000" preserveAspectRatio="xMidYMid meet" version="1.0"><defs><clipPath id="a470f04f4c"><path d="M 0 18.75 L 1500 18.75 L 1500 1481.25 L 0 1481.25 Z M 0 18.75 " clip-rule="nonzero"/></clipPath><clipPath id="f40bf3f0bd"><path d="M 262 288.53125 L 1238 288.53125 L 1238 1211.78125 L 262 1211.78125 Z M 262 288.53125 " clip-rule="nonzero"/></clipPath></defs><g clip-path="url(#a470f04f4c)"><path fill="#de6b48" d="M 416.101562 1481.25 L 0 959.25 L 148.5 308.25 L 750 18.75 L 1351.5 308.25 L 1500 959.25 L 1083.898438 1481.25 Z M 416.101562 1481.25 " fill-opacity="1" fill-rule="nonzero"/></g><g clip-path="url(#f40bf3f0bd)"><path fill="#f8f9fa" d="M 969.609375 674.839844 L 924.886719 674.839844 L 924.886719 542.011719 C 924.886719 402.320312 811.097656 288.53125 671.410156 288.53125 L 575.773438 288.53125 C 459.546875 288.53125 364.796875 381.070312 361.253906 496.40625 C 361.253906 497.070312 361.253906 497.515625 361.253906 498.179688 C 361.253906 498.84375 361.253906 499.507812 361.253906 500.171875 L 361.253906 500.613281 C 361.253906 501.5 361.253906 502.386719 361.253906 503.050781 C 362.804688 540.242188 393.355469 569.683594 430.769531 569.683594 C 469.289062 569.683594 500.28125 538.46875 500.28125 500.171875 C 500.28125 474.269531 486.113281 451.46875 464.859375 439.511719 C 463.3125 438.628906 461.539062 437.742188 459.992188 437.078125 C 451.136719 432.871094 441.171875 430.65625 430.769531 430.65625 C 429.441406 430.65625 427.890625 430.65625 426.5625 430.878906 C 433.425781 416.710938 442.28125 403.871094 452.683594 392.359375 C 452.683594 392.359375 452.683594 392.359375 452.683594 392.136719 C 453.570312 391.253906 454.457031 390.367188 455.339844 389.257812 C 485.671875 357.160156 528.398438 337.234375 575.550781 337.234375 L 671.1875 337.234375 C 784.089844 337.234375 875.964844 429.109375 875.964844 542.011719 L 875.964844 674.839844 L 530.390625 674.839844 C 382.507812 674.839844 262.078125 795.269531 262.078125 943.152344 C 262.078125 1091.035156 382.507812 1211.464844 530.390625 1211.464844 L 558.726562 1211.464844 C 662.773438 1211.464844 747.5625 1127.785156 749.777344 1024.179688 C 749.777344 1023.070312 750 1021.742188 750 1020.414062 L 750 1020.191406 C 750 1000.933594 742.25 983.664062 729.632812 971.046875 C 717.011719 958.429688 699.746094 950.679688 680.484375 950.679688 C 641.964844 950.679688 610.972656 981.894531 610.972656 1020.191406 C 610.972656 1058.714844 642.1875 1089.707031 680.484375 1089.707031 C 681.371094 1089.707031 682.035156 1089.707031 682.921875 1089.707031 C 658.570312 1133.097656 612.078125 1162.320312 558.949219 1162.320312 L 530.609375 1162.320312 C 409.515625 1162.320312 311 1063.804688 311 942.710938 C 311 821.613281 409.515625 723.101562 530.609375 723.101562 L 876.183594 723.101562 L 876.183594 1117.601562 C 876.183594 1169.179688 918.246094 1211.023438 969.609375 1211.023438 C 1117.710938 1211.023438 1237.921875 1090.589844 1237.921875 942.710938 C 1237.921875 795.269531 1117.488281 674.839844 969.609375 674.839844 Z M 969.609375 1162.761719 C 945.035156 1162.761719 924.886719 1142.617188 924.886719 1118.042969 L 924.886719 723.542969 L 969.609375 723.542969 C 1090.703125 723.542969 1189.214844 822.058594 1189.214844 943.152344 C 1189.214844 1064.246094 1090.703125 1162.761719 969.609375 1162.761719 Z M 969.609375 1162.761719 " fill-opacity="1" fill-rule="nonzero"/></g></svg>